<svg id="Laag_1" data-name="Laag 1" xmlns="http://www.w3.org/2000/svg" xmlns:xlink="http://www.w3.org/1999/xlink" viewBox="0 0 1281.9 646.95"><defs><style>.cls-1,.cls-18,.cls-19,.cls-20,.cls-21{fill:none;}.cls-2{fill:#7ccdf3;stroke-width:1.45px;}.cls-10,.cls-11,.cls-12,.cls-13,.cls-14,.cls-15,.cls-16,.cls-17,.cls-18,.cls-19,.cls-2,.cls-22,.cls-23,.cls-24,.cls-3,.cls-4,.cls-5,.cls-7,.cls-8,.cls-9{stroke:#1d1d1b;}.cls-10,.cls-11,.cls-12,.cls-13,.cls-14,.cls-15,.cls-16,.cls-17,.cls-19,.cls-2,.cls-20,.cls-21,.cls-3,.cls-4,.cls-5,.cls-7,.cls-8,.cls-9{stroke-miterlimit:10;}.cls-3,.cls-4{fill:#185c2a;}.cls-3{stroke-width:1.34px;}.cls-4{stroke-width:1.05px;}.cls-13,.cls-5,.cls-8{fill:#989898;}.cls-5{stroke-width:1.68px;}.cls-6{clip-path:url(#clip-path);}.cls-10,.cls-11,.cls-12,.cls-14,.cls-15,.cls-16,.cls-7,.cls-9{fill:#5a5959;}.cls-7{stroke-width:1.18px;}.cls-15,.cls-8{stroke-width:1.19px;}.cls-9{stroke-width:1.17px;}.cls-10{stroke-width:1.15px;}.cls-11{stroke-width:1.13px;}.cls-12{stroke-width:1.12px;}.cls-13{stroke-width:1.15px;}.cls-14{stroke-width:1.1px;}.cls-16,.cls-18,.cls-23{stroke-width:1.85px;}.cls-17{fill:#e5332a;stroke-width:2.09px;}.cls-18,.cls-22,.cls-23{stroke-linecap:round;}.cls-18,.cls-22,.cls-23,.cls-24{stroke-linejoin:round;}.cls-19{stroke-width:1.59px;}.cls-20,.cls-21{stroke:#fff;}.cls-20{stroke-width:4.75px;}.cls-21{stroke-width:3.7px;}.cls-22{fill:#6f6f6e;stroke-width:1.83px;}.cls-23{fill:#1d1d1b;}.cls-24{fill:#868686;stroke-width:1.7px;}</style><clipPath id="clip-path" transform="translate(1.23 -1.77)"><polyline class="cls-1" points="188.68 488.51 249.77 249.67 578.36 249.67 906.95 249.67 968.04 488.51"/></clipPath></defs><title>background</title><rect class="cls-2" x="0.73" y="0.73" width="1280" height="645.5"/><rect class="cls-3" x="1.23" y="526.55" width="1280" height="119.68"/><path class="cls-4" d="M250.68,466.3" transform="translate(1.23 -1.77)"/><rect class="cls-5" x="189.9" y="486.74" width="779.37" height="39.81"/><g class="cls-6"><rect class="cls-7" x="194.84" y="466.84" width="768.67" height="19.9"/><rect class="cls-8" x="189.9" y="446.93" width="779.37" height="19.9"/><rect class="cls-9" x="205.64" y="427.03" width="748" height="19.9"/><rect class="cls-8" x="189.9" y="407.13" width="779.37" height="19.9"/><rect class="cls-10" x="216.29" y="387.22" width="726.86" height="19.9"/><rect class="cls-8" x="189.9" y="367.32" width="779.37" height="19.9"/><rect class="cls-11" x="226.01" y="347.42" width="707.26" height="19.9"/><rect class="cls-8" x="189.9" y="327.51" width="779.37" height="19.9"/><rect class="cls-12" x="235.73" y="307.61" width="687.51" height="19.9"/><rect class="cls-13" x="189.9" y="287.71" width="733.18" height="19.9"/><rect class="cls-14" x="246.06" y="267.8" width="666.38" height="19.9"/><rect class="cls-8" x="189.9" y="247.9" width="779.37" height="19.9"/></g><path class="cls-15" d="M249.75,382.05" transform="translate(1.23 -1.77)"/><line class="cls-16" x1="220.91" y1="367.32" x2="220.91" y2="313.16"/><line class="cls-16" x1="938.26" y1="367.32" x2="938.26" y2="313.16"/><rect class="cls-17" x="210.27" y="105.56" width="738.02" height="59.03"/><polyline class="cls-18" points="210.27 164.58 251 177.54 251 247.9 251 193.75 189.9 433.05 189.78 526.7"/><polyline class="cls-18" points="948.44 164.58 907.71 177.54 907.71 247.9 907.71 193.75 968.81 433.05 969.27 526.7"/><line class="cls-19" x1="251" y1="177.54" x2="907.71" y2="177.54"/><line class="cls-20" x1="1.23" y1="579.31" x2="1280.66" y2="579.31"/><line class="cls-21" x1="579.35" y1="579.31" x2="579.35" y2="646.23"/><rect class="cls-22" x="254.83" y="178.47" width="648.85" height="69.43"/><path class="cls-23" d="M907,179.32" transform="translate(1.23 -1.77)"/><polygon class="cls-24" points="210.27 165.51 251 177.54 907.71 177.54 945.53 165.51 210.27 165.51"/></svg>