<svg id="Laag_1" data-name="Laag 1" xmlns="http://www.w3.org/2000/svg" viewBox="0 0 55.7 107.82"><defs><style>.cls-1{fill:#334a99;stroke:#1d1d1b;stroke-miterlimit:10;stroke-width:0.79px;}</style></defs><title>fans1</title><g id="_Groep_" data-name="&lt;Groep&gt;"><path class="cls-1" d="M32.51,16.1A4.69,4.69,0,0,0,28,18.53a17,17,0,0,0-.34,4.39s-.59-.2-.73.07a3.75,3.75,0,0,0-.14,1.5,2,2,0,0,0,.66,1.23c.27.23.86.25,1,.36a7.43,7.43,0,0,1,.18,1.27,4.47,4.47,0,0,1-1.27,0A2.49,2.49,0,0,1,26,26.46c-.18-.34-.39-.48-1-.52s-2.34-1.32-3.2-1.36a5.78,5.78,0,0,1-2.59-1.07c-.7-.48-1.23-1-1.73-1a27.58,27.58,0,0,0-3.09-2.11C13.08,19.69,13,17.53,11.1,15A34.76,34.76,0,0,1,7.4,7.67c-.32-.75-.27-.82.27-1.5s1.18-1.23.89-2L8,2.54c-.09-.25-.5-.23-.5-.23s-.16-.39-.27-.59-.52-.18-.7-.09A2.27,2.27,0,0,0,6.06,2l-.8,0c-.16,0-.77.2-.86.45a3.6,3.6,0,0,0-.75.18c-.25.11-.3.25-.3.25a.55.55,0,0,0-.48.2c-.2.25-.18.39-.14,1a16.13,16.13,0,0,1,.09,1.68c0,.43.57,1,1,2.3s1.59,4.48,2.27,6.64a21.25,21.25,0,0,0,2.32,5.64c1,1.45,1.09,1.91,2,2.5a63,63,0,0,1,4.79,4.7c.57.57,1.23,1,1.3,1.36s0,.52.14.61a2.09,2.09,0,0,1,1.57.93c.43.82,2,2.2,2.18,3.77s.93,8.57,1.09,11.93.57,7,.3,8.09a8.42,8.42,0,0,0-.43,2.82c.14.5.3.11.32,1.27s-.34,3.16-.34,4a11.76,11.76,0,0,1-.16,2.61c-.23,1,0,1.3.14,2.45s.36,5.43.36,6.86.59,1.73.77,3.52,0,4.34.16,4.82.45,1.32.11,1.55-.09.41-.2,1-.57.84-.32,2.07a46.17,46.17,0,0,1,.68,5.41c.07,1.52.48,3.09.25,4.32a18.86,18.86,0,0,0-.18,3.84c.07.36.8.43.8,1s-1.09,1.48-1.75,2a15.09,15.09,0,0,1-2.5,1.45,1.67,1.67,0,0,0-.86,1.59c0,.57.32.86,1.36,1a29.86,29.86,0,0,0,5-.36c1.27-.2,4.48-.86,4.57-1.3a21.37,21.37,0,0,0-.18-2.77,10.28,10.28,0,0,0,.48-2.34c-.07-.57-.39-.57-.27-1.25a5,5,0,0,0-.27-1.86,10.34,10.34,0,0,1-.11-2.07c0-.59.11-2.41.25-3.52a21.52,21.52,0,0,0,0-3.59,3.4,3.4,0,0,1,0-1.27c.09-.36,0-.43-.11-.84s.34-1,.18-1.27-.39-.27-.39-.73.66-.73.57-1.07.48-2.55.48-4.14S30,76.12,30.53,75a7.41,7.41,0,0,0,.55-2.77c.07-.75.7-2.2.55-2.86A2.43,2.43,0,0,1,32,67.78c.16-.3.5.41.77,1.09a53.29,53.29,0,0,1,2.7,8.75c.43,2.7,1.16,6.2,1.39,7a31.28,31.28,0,0,1,1.39,4.91A16.4,16.4,0,0,0,39.37,94a2.83,2.83,0,0,1,.36,2.11c-.16.91-.52,3-.55,3.68a6.79,6.79,0,0,0,.32,3.09c.48.89.86,1.16.86,1.73s-.52,2.27-.52,2.77.07,1.18,2,1.2,4.48.11,4.48-1.14-.34-2.77-.14-3,.68-.09.82-1.23-.27-1.2-.48-1.93-.75-1.5-.48-2.23a45.31,45.31,0,0,0,.25-8.52c-.27-1.16-.86-5.41-.91-6.36s-.59-1-.57-1.61a2,2,0,0,0-.7-1.36,5.39,5.39,0,0,1-.86-2.11,31.32,31.32,0,0,1,.07-6c.18-1.75.25-7.23.23-8.27a3.87,3.87,0,0,0-.32-2,4.6,4.6,0,0,1-.14-2.09c0-.39-.41-.18-.32-.93a2.17,2.17,0,0,0-.25-1.34,2,2,0,0,0,.18-1.25,6.16,6.16,0,0,1-.45-3.07c.16-1.57-.27-4.93-.18-6.54s.23-9.16.52-10.61a16,16,0,0,1,1.57-4.41c.66-1.11.8-2.27,1.66-3.07s2-1.77,1.86-2.27c0,0,2.5-3.39,3.5-4.36s3.11-5.75,4-9.13S57,7.22,57.26,6.33s.57-2.09.2-2.45-.5-.32-.5-.32-.18-.41-.45-.45-.16-.43-.48-.45a2.66,2.66,0,0,1-.86-.16.81.81,0,0,0-.5-.11c-.16,0-.41-.23-.5-.39s-.36-.07-.57,0-.36.43-.43.57a.82.82,0,0,0,0,.36,1.87,1.87,0,0,0-.66.25,8.84,8.84,0,0,0-.64,1.36c-.2.45-.07.77.39,1.45s.73,1,.7,1.43a21.48,21.48,0,0,1-2.68,7.29c-2,3.34-2.16,4.68-3.11,5.73A27.68,27.68,0,0,1,45,22.56a2.62,2.62,0,0,0-.8.57,7.25,7.25,0,0,1-1.5,1.09,4.76,4.76,0,0,1-1.7.59c-.25,0-.84.77-1.23.91a8.32,8.32,0,0,0-1.34.43c-.41.23-.23.64-.7.82s-1,.68-1.2.73-.34-.48-.34-.48l.27-.7s.73-.11,1-.5a5.08,5.08,0,0,0,.43-2c0-.61-.25-.59-.61-.59a4.78,4.78,0,0,0,.23-2.89,5.24,5.24,0,0,0-2-3.77A6.51,6.51,0,0,0,32.51,16.1Z" transform="translate(-2.32 -1.17)"/></g></svg>