<svg id="Laag_1" data-name="Laag 1" xmlns="http://www.w3.org/2000/svg" viewBox="0 0 43.41 108.84"><defs><style>.cls-1{fill:#dd2f3b;stroke:#1d1d1b;stroke-miterlimit:10;stroke-width:0.84px;}</style></defs><title>fans2</title><g id="_Groep_" data-name="&lt;Groep&gt;"><path class="cls-1" d="M10.86,29.79c.53.73-.17-3,.15-4.45s1-4.54,1-4.54.29,1.81.39,2.32A36.54,36.54,0,0,0,15,27s-.12,2.22.6,2.83a16,16,0,0,1,3.31,3.48c.8,1.38,1.38,1.72,1.57,3.14A74.18,74.18,0,0,1,21.07,45a87.55,87.55,0,0,1-1.23,11.12c-.46,1.74-.29,1.86.39,2a8.63,8.63,0,0,1,1.57.58s-.1,1.5-.17,1.74a4.21,4.21,0,0,0-.19,1,2,2,0,0,1-.17.94c-.1.15-.07.41-.12,1a36.28,36.28,0,0,0,0,4.81,59.31,59.31,0,0,1,.48,7.69,7.66,7.66,0,0,0,.56,3.12,11.42,11.42,0,0,1,.17,3c-.12.51.12.68,0,1.18s-.65,1.26-.31,2,0,1.72,0,2.3a43,43,0,0,1,.34,4.67,31.25,31.25,0,0,0,0,4.28,20,20,0,0,1-.24,3.19c0,.65.24,1.84.19,2.18s.56.46.7.65-.41.77-.6,1-1.47,1.69-2.13,2.42-1,.94-1,1.43-.22,1.16.36,1.35a6,6,0,0,0,3.7.07c1.28-.56,1.33-1.14,2.73-1.67s1.64-.63,1.64-1.33a4.94,4.94,0,0,1,.15-1.33,4.5,4.5,0,0,0,.15-1.91c-.19-.58-.34-.68,0-.94s.1-.75,0-1,.39-.58.44-1.28A34.94,34.94,0,0,0,28.66,94a26.2,26.2,0,0,1-.44-4.3,11.63,11.63,0,0,0-.41-2.68c0-.46.27-.63.07-1.09s.31-1.09.15-1.5.39-1,.41-1.64.34-2.68.46-3.31-.07-2.78.31-3.53a9.88,9.88,0,0,0,.58-2.76,17.78,17.78,0,0,1,.31-3c.24.07.24,2.47.31,3A9.09,9.09,0,0,0,31,76c.39.75.19,2.9.31,3.53s.44,2.66.46,3.31.58,1.23.41,1.64.34,1,.15,1.5.12.65.07,1.09A13.12,13.12,0,0,0,32,89.74a26.2,26.2,0,0,1-.44,4.3,34.7,34.7,0,0,0,.17,5.17c0,.7.58,1,.44,1.28s-.34.77,0,1,.12.36,0,.94a4.2,4.2,0,0,0,.15,1.91,4.94,4.94,0,0,1,.15,1.33c0,.7.24.8,1.64,1.33s1.45,1.11,2.73,1.67a5.83,5.83,0,0,0,3.7-.07c.56-.22.36-.87.36-1.35s-.34-.7-1-1.43-1.91-2.2-2.13-2.42-.75-.82-.6-1,.75-.31.7-.65.22-1.55.19-2.18a20,20,0,0,1-.24-3.19,25.06,25.06,0,0,0,0-4.28,42.57,42.57,0,0,1,.34-4.67c0-.58-.36-1.55,0-2.3s-.24-1.5-.31-2,.17-.68,0-1.18a10.49,10.49,0,0,1,.17-3,8.09,8.09,0,0,0,.56-3.12A59.31,59.31,0,0,1,39,68.13a32.47,32.47,0,0,0,0-4.81c0-.6,0-.87-.12-1a2.41,2.41,0,0,1-.17-.94,3.26,3.26,0,0,0-.19-1c-.07-.27-.17-1.74-.17-1.74A8.63,8.63,0,0,1,40,58.08c.68-.17.85-.27.39-2A88.07,88.07,0,0,1,39.15,45c-.1-2.76.51-7,.58-8.46s.77-1.76,1.57-3.14a16,16,0,0,1,3.31-3.48c.73-.58.6-2.83.6-2.83a36.54,36.54,0,0,0,2.61-3.92c.1-.51.39-2.32.39-2.32s.7,3.09,1,4.54-.39,5.17.15,4.45,2.1-.85,2-1.52,0-4.62-.24-8.32-.39-7.2-.48-8.56-.07-3-.17-3.94-.31-2.1-.31-2.1a7.13,7.13,0,0,0,0-1c0-.29-.1-1-.34-1.16A4.44,4.44,0,0,0,49,2.79a.77.77,0,0,0-.27-.63A1.4,1.4,0,0,0,47.92,2s-.15-.34-.39-.39a1.36,1.36,0,0,0-.6.1s0-.34-.24-.39a1.69,1.69,0,0,0-.7.15c-.07-.34-.24-.51-.48-.48s-.31.75-.41,1.06c0,0-9.74-.07-15-.17S15,2.07,15,2.07c-.1-.31-.17-1-.41-1.06s-.41.15-.48.48a1.69,1.69,0,0,0-.7-.15c-.24,0-.24.39-.24.39a1.86,1.86,0,0,0-.6-.1c-.24,0-.39.39-.39.39a1.4,1.4,0,0,0-.77.15.77.77,0,0,0-.27.63,4.44,4.44,0,0,0-.82.36C10.09,3.32,10,4,10,4.31a7.18,7.18,0,0,0,0,1s-.22,1.16-.31,2.1S9.61,10,9.51,11.4,9.29,16.26,9,20s-.1,7.64-.24,8.32S10.19,29.07,10.86,29.79ZM13.89,9a5,5,0,0,1,1,.34,4.59,4.59,0,0,0,2.61.44c1.4-.15,9.84,0,13.05,0s10.76-.15,12.14,0a4.2,4.2,0,0,0,2.61-.44,7.64,7.64,0,0,1,1-.34,38.08,38.08,0,0,1-.7,4.91,18.57,18.57,0,0,0-.92,4.76c0,1.67-.22,2.83-.6,3.17a15.64,15.64,0,0,0-2.39,1.74A4.87,4.87,0,0,1,40,24.74c-.29.17-.36.51-.63,1.06s-1.74,1.09-2,1.23-1.38.75-1.89,1.06-.1.41-.68.73-1.16,0-1.35.19-.46-.19-.46-.19l.17-1.57s.58-.77.82-1.18a3.45,3.45,0,0,0,.34-1,2.38,2.38,0,0,0,.41-.27A1.71,1.71,0,0,0,35,23.63c0-.6.15-1.28,0-1.38s-.41,0-.41,0-.07-2.13-.17-3.09a4.2,4.2,0,0,0-1.84-2.49,4.76,4.76,0,0,0-2.1-.39,4.76,4.76,0,0,0-2.1.39,4.22,4.22,0,0,0-1.84,2.49c-.1,1-.17,3.09-.17,3.09s-.27-.1-.41,0,0,.77,0,1.38a1.7,1.7,0,0,0,.27,1.16,2.38,2.38,0,0,0,.41.27,3.45,3.45,0,0,0,.34,1c.24.41.82,1.18.82,1.18L28,28.83s-.27.41-.46.19-.77.12-1.35-.19-1.06-.41-1.57-.73S23,27.18,22.73,27s-1.74-.68-2-1.23-.31-.89-.63-1.06a4.64,4.64,0,0,1-1.62-1.16,13.26,13.26,0,0,0-2.39-1.74c-.41-.31-.6-1.5-.6-3.17a18.57,18.57,0,0,0-.92-4.76A36.89,36.89,0,0,1,13.89,9Z" transform="translate(-8.35 -0.58)"/></g></svg>