<svg id="Laag_1" data-name="Laag 1" xmlns="http://www.w3.org/2000/svg" viewBox="0 0 74.24 107.79"><defs><style>.cls-1{fill:#dd2f3b;stroke:#1d1d1b;stroke-miterlimit:10;stroke-width:0.83px;}</style></defs><title>fans4</title><g id="_Groep_" data-name="&lt;Groep&gt;"><path class="cls-1" d="M2.71,8c.34.46.63,1.67,1.11,2.25a5.54,5.54,0,0,1,1.27,2.23c.38,1.21,1.85,6.27,2.83,8.42s1.58,2.2,2.22,3.62,2.46,1.54,3.8,2.6,6.9,3.26,6.9,3.26A14.08,14.08,0,0,0,21.6,32c.14.1,1-.2,1.29,0s.79-.23,1.29.13,1.72-.23,2.08,1.59.77,6.3,1,8.34.47,7.48.52,9,.54,2,.11,2.88-1.06,1.69-.77,2.88,0,1.64.38,2.15-.38.94-.84,2.1-.41,2.35-.88,3-1.13,3.29-1.9,5.36-1.61,4.12-1.61,5.13-.52,1.87-.52,2.48a24.59,24.59,0,0,1-.59,2.76c-.23,1.16.34,1.39,0,2s-1.27,1.29-.84,2.1a10,10,0,0,1,.52,3.41,14.18,14.18,0,0,0,.52,2.91,29.47,29.47,0,0,1,.16,4.15c.09,1,.86,3,.68,3.54s-.07,2.63-.25,3.49a4.23,4.23,0,0,1-1.13,2.71,12.31,12.31,0,0,0-2.69,2.81,3.55,3.55,0,0,0-.09,2.45c.2.35,2,.66,3.57.43s3.26-1.49,3.28-1.85.79-.76,2-1.19,2-.89,2-1.82,0-2.86,0-2.86a4.26,4.26,0,0,0,0-1.54c-.16-.56.11-1.9-.16-2.71s.59-1.69.27-3.14-.61-5.46-.2-6.73a2.94,2.94,0,0,0-.18-2.48c-.29-.86-.41-1.54.32-1.77s1.31-.76,1.7-2.4S31.34,78,32.36,77s.57-2.17,1.58-3a11.24,11.24,0,0,0,3-3.44c.7-1.42,1.29-2.2,2.31-2.25s1.61.83,2.31,2.25a11.55,11.55,0,0,0,3,3.44c1,.86.57,2,1.58,3s1.36,2.66,1.74,4.3,1,2.17,1.7,2.4.61.91.32,1.77A2.93,2.93,0,0,0,49.68,88c.41,1.26.11,5.28-.2,6.73s.54,2.33.27,3.14,0,2.15-.16,2.71a4.31,4.31,0,0,0,0,1.54s0,1.92,0,2.86.84,1.39,2,1.82,1.94.83,2,1.19a5.71,5.71,0,0,0,3.28,1.85c1.54.25,3.39-.08,3.57-.43a3.55,3.55,0,0,0-.09-2.45,12.31,12.31,0,0,0-2.69-2.81,4.17,4.17,0,0,1-1.13-2.71c-.2-.89-.07-3-.25-3.49s.59-2.58.68-3.54a26.3,26.3,0,0,1,.16-4.15,14.18,14.18,0,0,0,.52-2.91,10,10,0,0,1,.52-3.41c.43-.81-.45-1.52-.84-2.1s.2-.81,0-2a20.31,20.31,0,0,1-.59-2.76,23.84,23.84,0,0,1-.52-2.48c0-1-.84-3.06-1.61-5.13s-1.42-4.68-1.9-5.36-.43-1.87-.88-3-1.24-1.59-.84-2.1.09-1,.38-2.15-.34-2-.77-2.88.07-1.42.11-2.88.25-6.9.52-9,.66-6.55,1-8.34,1.58-1.24,2.08-1.59,1,.08,1.29-.13,1.15.13,1.29,0a16.12,16.12,0,0,0,.77-1.69s5.56-2.17,6.9-3.26,3.17-1.19,3.8-2.6,1.24-1.47,2.22-3.62,2.42-7.21,2.83-8.42a5.82,5.82,0,0,1,1.27-2.23c.47-.58.77-1.8,1.11-2.25a1.14,1.14,0,0,0,.09-1.26,1.6,1.6,0,0,1-.27-.61c-.11-.33-.57-.56-.57-.81s-.38-.58-.57-.76a8.07,8.07,0,0,0-.75-.91,1.49,1.49,0,0,0-.86-.23s-.47-.56-.88-.46-.5.81-.81.83-.57-.3-1-.15-.54.71-.88,1.57a2,2,0,0,0,.14,2.1c.43,1,.32,1.54.75,2s0,1.49-.43,2.23-.7,1.87-1.49,3.21-2.76,3.54-3.53,4.65-1.06,2-2.4,2.53l-3.87,1.39c-.18-.3-.68.2-1.27.08s-.47-.48-.88-.1-1.58.3-2.78.2a27.3,27.3,0,0,0-3.26,0c-.52,0-1.38.63-2.15.56s-1.52-.51-1.85-.25-.5.05-1.11-.3a5.6,5.6,0,0,0-2.35-.13,6.1,6.1,0,0,1,0-1.52,8.15,8.15,0,0,1,.9-2c.07-.13.52.2.68.2s.57-.35.63-1.24S45.34,16.4,45,16a.39.39,0,0,0-.63,0s.11-4.65-.45-5.69a5.3,5.3,0,0,0-9.27,0c-.57,1-.45,5.69-.45,5.69a.39.39,0,0,0-.63,0c-.29.38,0,1.82.07,2.71s.47,1.24.63,1.24.59-.33.68-.2a9.68,9.68,0,0,1,.9,2,6.15,6.15,0,0,1,0,1.52,5.6,5.6,0,0,0-2.35.13c-.61.35-.77.56-1.11.3s-1.09.18-1.85.25-1.63-.53-2.15-.56a27.3,27.3,0,0,0-3.26,0c-1.22.1-2.37.2-2.78-.2s-.29,0-.88.1-1.09-.38-1.27-.08l-3.87-1.39c-1.33-.48-1.63-1.42-2.4-2.53S11.22,16,10.43,14.68s-1-2.48-1.49-3.21S8.07,9.7,8.5,9.25s.29-1,.75-2a2,2,0,0,0,.14-2.1C9,4.32,9,3.76,8.5,3.61s-.72.18-1,.15S7.06,3,6.65,2.93s-.88.46-.88.46a1.49,1.49,0,0,0-.86.23,6.31,6.31,0,0,0-.75.91C4,4.7,3.6,5,3.6,5.28s-.45.46-.57.81a1.45,1.45,0,0,1-.27.61A1.42,1.42,0,0,0,2.71,8Z" transform="translate(-2.18 -2.5)"/></g></svg>