<svg id="Laag_1" data-name="Laag 1" xmlns="http://www.w3.org/2000/svg" viewBox="0 0 71.47 105.24"><defs><style>.cls-1{fill:#4e4d5a;stroke:#000;stroke-miterlimit:10;}</style></defs><title>fans5</title><g id="_Groep_" data-name="&lt;Groep&gt;"><path class="cls-1" d="M74.57,18.07c-.39-1.68-2.16-10.5-2.16-10.5a1.78,1.78,0,0,0,.24-.72,5.64,5.64,0,0,0-.15-1c-.09-.24-.45-.27-.45-.27s-.12-.3-.24-.54-.21-.42-.42-.39a1.42,1.42,0,0,1-.39,0s-.12-.21-.24-.39A.74.74,0,0,0,70.13,4a.62.62,0,0,0-.45.3,1.93,1.93,0,0,0-.93-.3.73.73,0,0,0-.66.39s-.75-.48-3-.33-17.37,0-24.77,0-22.47.15-24.77,0-3,.33-3,.33A.68.68,0,0,0,11.83,4a2.6,2.6,0,0,0-.93.3.62.62,0,0,0-.45-.3.74.74,0,0,0-.63.27c-.12.18-.24.39-.24.39H9.19c-.18,0-.3.15-.42.39s-.24.54-.24.54-.39,0-.45.27-.12.75-.15,1a1.78,1.78,0,0,0,.24.72S6.4,16.39,6,18.07s-1.59,3.66-.6,4.74,3.3,3.69,3.93,3.51S10.63,24,10,22.09s1.83-4.35,1.83-4.35a39.47,39.47,0,0,0,3.42,3.51c1.26,1,3.48,4.11,5.13,5.4,0,0-.27,2.88.81,3.06a6.16,6.16,0,0,1,2.85.81c.9.63,1.8.84,2.28,1.62S28.8,38,28.8,40.59s-.36,9.9-.18,11.76a10.47,10.47,0,0,1-.45,4,2.25,2.25,0,0,0,.18,1.08s-2,5.34-1.44,7.26-.39,3.54-.06,5.82-1,5.22-1.38,7-.69,4.92-.69,4.92l2.28,1.44s-.63,3.81-.93,6.69-1.44,9.06-1.44,9.06a7,7,0,0,0-1.44,1.26,15.19,15.19,0,0,1-3.12,2.85c-1.26.81-1.8,1.2-2.19,1.92s-.39.6-.42,1.2-.12,1,.42,1.17a6.92,6.92,0,0,0,3.3.12,7.62,7.62,0,0,0,3.18-1.89c.6-.78,1.23-.51,2.43-.75s2-.45,2.19-1.65a11.27,11.27,0,0,0-.24-2.91,2.22,2.22,0,0,0-.12-.66,17.8,17.8,0,0,1,2.55-6,14.25,14.25,0,0,0,2.91-6.51l.39-3a25.65,25.65,0,0,0,3.39-.36c.6-.21,0-1.47.06-2s.48-2.19.48-2.52a16.08,16.08,0,0,1,0-2.67c.15-.57.51-3.06.72-3.84s.45-1.83,1-1.83.84,1.08,1,1.83.57,3.27.72,3.84a16.08,16.08,0,0,1,0,2.67c0,.33.42,1.95.48,2.52s-.54,1.86.06,2a26.16,26.16,0,0,0,3.39.36l.39,3a14.39,14.39,0,0,0,2.91,6.51,17.56,17.56,0,0,1,2.55,6,2.22,2.22,0,0,0-.12.66,11.27,11.27,0,0,0-.24,2.91c.15,1.23,1,1.41,2.19,1.65s1.83,0,2.43.75a7.69,7.69,0,0,0,3.18,1.89,7.35,7.35,0,0,0,3.3-.12c.57-.12.48-.6.42-1.17s0-.48-.42-1.2-.93-1.11-2.19-1.92a14.41,14.41,0,0,1-3.12-2.85,8.09,8.09,0,0,0-1.44-1.26s-1.14-6.15-1.44-9.06-.93-6.69-.93-6.69l2.28-1.44s-.36-3.15-.69-4.92-1.74-4.74-1.38-7-.6-3.9-.06-5.82-1.44-7.26-1.44-7.26a2.25,2.25,0,0,0,.18-1.08,10.47,10.47,0,0,1-.45-4c.18-1.86-.18-9.18-.18-11.76s2-7.68,2.52-8.46,1.41-1,2.28-1.62a6.16,6.16,0,0,1,2.85-.81c1.08-.18.81-3.06.81-3.06,1.65-1.29,3.87-4.41,5.13-5.4a35.64,35.64,0,0,0,3.42-3.51s2.46,2.37,1.83,4.35,0,4,.63,4.23,3-2.43,3.93-3.51S75,19.75,74.57,18.07ZM36.72,24.4c0,.33-.33,0-1.08.18a4,4,0,0,1-1.92-.12c-.54-.09-.84-.69-1.26-.75s-1.41-.12-1.89-.21-.87-.57-1.17-.6-.72-.15-1.35-.24-2.67-1.23-3.75-1.59S21.75,19.9,21.24,20a6.45,6.45,0,0,1-2.16-2.13c-1.11-1.62-4-2.79-4-2.79s4.65-.84,8.91-1.17,12.36-.78,12.36-.78a5.53,5.53,0,0,0-1,3.6c.15,1.17.18,1.56.18,1.56s-.54.12-.54.6.21.51.36,1.32.15.84.51,1a4.71,4.71,0,0,0,.78,2S36.72,24.07,36.72,24.4Zm24.86-6.54A6.87,6.87,0,0,1,59.43,20c-.51-.06-2,.75-3.06,1.11s-3.12,1.5-3.75,1.59-1,.21-1.35.24-.69.51-1.17.6-1.47.18-1.89.21-.69.66-1.26.75a4,4,0,0,1-1.92.12c-.75-.21-1.08.15-1.08-.18v-1.2a4.86,4.86,0,0,0,.78-2c.36-.18.36-.18.51-1s.36-.84.36-1.32-.54-.6-.54-.6a12.53,12.53,0,0,1,.18-1.56,5.2,5.2,0,0,0-1-3.6s8.1.45,12.36.78,8.91,1.17,8.91,1.17S62.7,16.24,61.59,17.86Z" transform="translate(-4.53 -3.5)"/></g></svg>