<svg id="Laag_1" data-name="Laag 1" xmlns="http://www.w3.org/2000/svg" viewBox="0 0 43.96 106.47"><defs><style>.cls-1{fill:#334a99;stroke:#1d1d1b;stroke-miterlimit:10;stroke-width:0.91px;}</style></defs><title>fans3</title><g id="_Groep_" data-name="&lt;Groep&gt;"><path class="cls-1" d="M49.39,18.59A2.43,2.43,0,0,1,49,16.91a1,1,0,0,0-.55-1.2c-.45-.26-.08-.55-.37-.89s-1.31-.45-1.31-.45a19.77,19.77,0,0,0-2.28-3c-1.34-1.39-2.7-3.2-3.17-3.75s-.63-1.07-.92-1.34A7.59,7.59,0,0,1,39,4.49c-.73-1.13-1.15-1.07-1.55-1.44s-1-1.13-1.55-1-.65.55-.79.81-.34.21-.63.37a3,3,0,0,0-.6.63,3.55,3.55,0,0,0-.65.29c-.31.18-.29.68-.29.68a2,2,0,0,0-.5.26c-.31.21-.13.76-.13.76a.84.84,0,0,0-.42.68C32,6.9,33.36,8,33.7,8.24s1.7-.18,2.41-.29,1.2.34,2.36,1.68a41,41,0,0,1,3.22,5.45,1.85,1.85,0,0,0-.37.5,2,2,0,0,0,.18,1.62,3.13,3.13,0,0,0,1.07,1.36c.52.29-.18.6-.55.86s-1.39,1.07-2.38,1.81S38,23.56,37.16,24a8.55,8.55,0,0,1-2.62.65c-.81.13-.76.65-1.1.86s-1.36.63-1.49.29-1-1-.84-1.81a28,28,0,0,1,.86-2.8,1,1,0,0,0,.5-.42,6.62,6.62,0,0,0,.45-1.91c-.05-.45.26-.76.34-1.57a6.71,6.71,0,0,0,0-3.06c-.39-1-.94-1.13-1.73-2.36s-1.81-1.39-3.61-1.39-2.83.16-3.61,1.39S23,13.22,22.57,14.21a6.71,6.71,0,0,0,0,3.06c.08.79.37,1.1.34,1.57a7.6,7.6,0,0,0,.45,1.91,1,1,0,0,0,.5.42,28,28,0,0,1,.86,2.8c.13.76-.71,1.47-.84,1.81s-1.18-.05-1.49-.29-.31-.73-1.1-.86A8.55,8.55,0,0,1,18.67,24c-.79-.42-1.47-2-2.49-2.75s-2-1.57-2.38-1.81-1.07-.55-.55-.86a3.13,3.13,0,0,0,1.07-1.36,2,2,0,0,0,.18-1.62,1.37,1.37,0,0,0-.37-.5,39.41,39.41,0,0,1,3.22-5.45C18.54,8.29,19,7.87,19.72,8s2.07.52,2.41.29,1.73-1.34,1.78-1.75-.42-.68-.42-.68.18-.55-.13-.76a2,2,0,0,0-.5-.26s.05-.52-.29-.68a3.55,3.55,0,0,0-.65-.29,2.38,2.38,0,0,0-.6-.63c-.26-.16-.5-.1-.63-.37s-.26-.73-.79-.81-1.15.65-1.55,1-.81.31-1.55,1.44a8.27,8.27,0,0,1-1.41,1.78c-.29.26-.45.79-.92,1.34S12.64,10,11.31,11.36a17.92,17.92,0,0,0-2.28,3s-1,.13-1.31.45.1.63-.37.89a1,1,0,0,0-.55,1.2,2.54,2.54,0,0,1-.37,1.68c-.26.37.47,0,1.13,2a19.91,19.91,0,0,0,2.49,5.13c1,1.47,3.61,4.56,4.51,5.5s2.38,2.38,2.8,3.8a67.54,67.54,0,0,1,1.28,9.69c.24,3.54-.21,6.5.16,7.62a4,4,0,0,1,.45,2.59c-.16,1.41-.52,2.38.05,3.06a19.45,19.45,0,0,1-.55,3.43,5.74,5.74,0,0,0-.24,2.7c.08,1-.08,4.74-.21,6.55s-.05,6.71-.34,7.73.52,1.18.45,1.7-.79.34-.79,1.1a2.94,2.94,0,0,1-.47,2c-.45.45,0,3-.26,4.56s-.55,4.87-.76,6-.31,1.47-.37,2-.52,1.07-.37,1.75.71.76.26,1.07a3,3,0,0,0-1,1.34c-.26.58-.89,1-.76,1.65a16.22,16.22,0,0,0-2.83,2.33,3.56,3.56,0,0,0-1,2.1c-.05.65-.24,1.31.55,1.47s3,.5,4.32-.52,1.36-1.89,2.2-2.41,2.59-1.07,2.85-1.7a4.33,4.33,0,0,0,.21-1.57s1.13-.24,1-1-.81-1.34.16-1.94a2.4,2.4,0,0,0,.92-2.49A36.5,36.5,0,0,1,23.2,88c.58-1.65.16-5.08,1-6.42s1.36-5.24,2.25-6.73,1-4.79,1.13-5.06.18-.18.18-.18.05-.08.18.18.26,3.56,1.13,5.06,1.47,5.42,2.25,6.73.37,4.74,1,6.42a35,35,0,0,1,.89,7.65,2.4,2.4,0,0,0,.92,2.49c1,.6.29,1.13.16,1.94s1,1,1,1a4.33,4.33,0,0,0,.21,1.57c.26.63,2,1.18,2.85,1.7s.86,1.39,2.2,2.41,3.54.65,4.32.52.6-.79.55-1.47a3.43,3.43,0,0,0-1-2.1,17.6,17.6,0,0,0-2.83-2.33c.16-.63-.47-1.07-.76-1.65a3,3,0,0,0-1-1.34c-.45-.29.1-.39.26-1.07s-.31-1.23-.37-1.75-.18-.86-.37-2-.47-4.4-.76-6,.16-4.11-.26-4.56a2.73,2.73,0,0,1-.47-2c0-.76-.71-.55-.79-1.1s.71-.68.45-1.7-.21-5.92-.34-7.73-.29-5.5-.21-6.55a5.71,5.71,0,0,0-.24-2.7A19.45,19.45,0,0,1,36.17,58c.58-.65.24-1.65.05-3.06a4.18,4.18,0,0,1,.45-2.59c.37-1.13-.08-4.09.16-7.62A67,67,0,0,1,38.1,35c.42-1.39,1.91-2.85,2.8-3.8a68,68,0,0,0,4.51-5.5,17.67,17.67,0,0,0,2.49-5.13C48.53,18.56,49.65,19,49.39,18.59Z" transform="translate(-5.93 -1.54)"/></g></svg>